<?xml version="1.0"?>
<svg xmlns="http://www.w3.org/2000/svg" xmlns:xlink="http://www.w3.org/1999/xlink" xmlns:svgjs="http://svgjs.com/svgjs" version="1.1" width="512" height="512" x="0" y="0" viewBox="0 0 60 60" style="enable-background:new 0 0 512 512" xml:space="preserve" class=""><g><g xmlns="http://www.w3.org/2000/svg" id="Page-1" fill="none" fill-rule="evenodd"><g id="038---Add-Email" fill="rgb(0,0,0)" fill-rule="nonzero"><path id="Shape" d="m57 29h-4v-26c-.0018187-1.65610033-1.3438997-2.99818129-3-3h-40c-1.65610033.00181871-2.99818129 1.34389967-3 3v26h-4c-1.65610033.0018187-2.99818129 1.3438997-3 3v23c.00325114 2.760076 2.23992404 4.9967489 5 5h50c2.760076-.0032511 4.9967489-2.239924 5-5v-23c-.0018187-1.6561003-1.3438997-2.9981813-3-3zm0 2c.5520791.0004962.9995038.4479209 1 1v8h-5v-9zm-48-28c.0004962-.55207909.44792091-.9995038 1-1h40c.5520791.0004962.9995038.44792091 1 1v37h-8.4648c-.6688455-.0005555-1.2935539.3337785-1.6641.8906l-3.4063 5.1094h-14.93l-3.4063-5.1094c-.3704677-.5567034-.9949962-.8910215-1.6637-.8906h-8.4648zm-6 28h4v9h-5v-8c.0004962-.5520791.44792091-.9995038 1-1zm55 24c-.0018187 1.6561003-1.3438997 2.9981813-3 3h-50c-1.65610033-.0018187-2.99818129-1.3438997-3-3v-13h15.4648l3.4063 5.1094c.3705461.5568215.9952545.8911555 1.6641.8906h14.93c.6688455.0005555 1.2935539-.3337785 1.6641-.8906l3.4059-5.1094h15.4648z" fill="#775036" data-original="#000000" style="" class=""/><path id="Shape" d="m17 27h8v8c.0012675 1.1040441.8959559 1.9987325 2 2h6c1.1040441-.0012675 1.9987325-.8959559 2-2v-8h8c1.1040441-.0012675 1.9987325-.8959559 2-2v-6c-.0012675-1.1040441-.8959559-1.9987325-2-2h-8v-8c-.0012675-1.10404407-.8959559-1.99873253-2-2h-6c-1.1040441.00126747-1.9987325.89595593-2 2v8h-8c-1.1040441.0012675-1.9987325.8959559-2 2v6c.0012675 1.1040441.8959559 1.9987325 2 2zm0-8h8c1.1040441-.0012675 1.9987325-.8959559 2-2v-8h6v8c.0012675 1.1040441.8959559 1.9987325 2 2l8-.0015v6.0015h-8c-1.1040441.0012675-1.9987325.8959559-2 2v8h-6v-8c-.0012675-1.1040441-.8959559-1.9987325-2-2h-8z" fill="#775036" data-original="#000000" style="" class=""/></g></g></g></svg>
