<?xml version="1.0"?>
<svg xmlns="http://www.w3.org/2000/svg" xmlns:xlink="http://www.w3.org/1999/xlink" xmlns:svgjs="http://svgjs.com/svgjs" version="1.1" width="512" height="512" x="0" y="0" viewBox="0 0 512.002 512.002" style="enable-background:new 0 0 512 512" xml:space="preserve" class=""><g>
<polygon xmlns="http://www.w3.org/2000/svg" style="" points="156.18,497.001 15,355.827 15,156.177 156.18,15.001 355.824,15.001 497,156.177   497,355.827 355.824,497.001 " fill="#775036" data-original="#ff5e95" class=""/>
<polygon xmlns="http://www.w3.org/2000/svg" style="" points="355.824,15.001 256,15.001 256,497.001 355.824,497.001 497,355.827 497,156.177 " fill="#775036" data-original="#ff193d" class=""/>
<path xmlns="http://www.w3.org/2000/svg" style="" d="M355.824,512.001H156.18c-3.978,0-7.794-1.58-10.606-4.394L4.394,366.434  C1.581,363.621,0,359.806,0,355.827v-199.65c0-3.979,1.581-7.794,4.394-10.606L145.573,4.395c2.813-2.814,6.629-4.394,10.607-4.394  h199.645c3.978,0,7.794,1.58,10.607,4.394l141.176,141.176c2.813,2.813,4.394,6.628,4.394,10.606v199.65  c0,3.978-1.581,7.794-4.394,10.606L366.431,507.607C363.618,510.421,359.802,512.001,355.824,512.001z M162.393,482.001H349.61  L482,349.614V162.39L349.61,30.001H162.393L30,162.39v187.225L162.393,482.001z" fill="#f6f1ce" data-original="#deecf1" class=""/>
<g xmlns="http://www.w3.org/2000/svg">
	<path style="" d="M256.003,399.538c-3.949,0-7.82-1.61-10.609-4.4c-2.79-2.79-4.391-6.66-4.391-10.6   c0-3.95,1.601-7.82,4.391-10.61c2.789-2.79,6.66-4.39,10.609-4.39c3.95,0,7.811,1.6,10.601,4.39c2.8,2.79,4.399,6.66,4.399,10.61   c0,3.939-1.6,7.81-4.399,10.6C263.813,397.928,259.943,399.538,256.003,399.538z" fill="#ffffff" data-original="#ffffff" class=""/>
	<path style="" d="M256,303.134c-8.284,0-15-6.716-15-15V127.468c0-8.284,6.716-15,15-15s15,6.716,15,15v160.666   C271,296.418,264.284,303.134,256,303.134z" fill="#ffffff" data-original="#ffffff" class=""/>
</g>
<path xmlns="http://www.w3.org/2000/svg" style="" d="M507.606,145.57L366.431,4.395c-2.813-2.814-6.629-4.394-10.607-4.394H256v30h93.61L482,162.39  v187.225L349.61,482.001H256v30h99.824c3.978,0,7.794-1.58,10.607-4.394l141.176-141.174c2.813-2.813,4.394-6.628,4.394-10.606  v-199.65C512,152.198,510.419,148.383,507.606,145.57z" fill="#f6f1ce" data-original="#a2d8f4" class=""/>
<g xmlns="http://www.w3.org/2000/svg">
</g>
<g xmlns="http://www.w3.org/2000/svg">
</g>
<g xmlns="http://www.w3.org/2000/svg">
</g>
<g xmlns="http://www.w3.org/2000/svg">
</g>
<g xmlns="http://www.w3.org/2000/svg">
</g>
<g xmlns="http://www.w3.org/2000/svg">
</g>
<g xmlns="http://www.w3.org/2000/svg">
</g>
<g xmlns="http://www.w3.org/2000/svg">
</g>
<g xmlns="http://www.w3.org/2000/svg">
</g>
<g xmlns="http://www.w3.org/2000/svg">
</g>
<g xmlns="http://www.w3.org/2000/svg">
</g>
<g xmlns="http://www.w3.org/2000/svg">
</g>
<g xmlns="http://www.w3.org/2000/svg">
</g>
<g xmlns="http://www.w3.org/2000/svg">
</g>
<g xmlns="http://www.w3.org/2000/svg">
</g>
</g></svg>
